<?xml version="1.0" encoding="utf-8"?> 
<!DOCTYPE svg PUBLIC "-//W3C//DTD SVG 1.1//EN" "http://www.w3.org/Graphics/SVG/1.1/DTD/svg11.dtd">

<svg xmlns="http://www.w3.org/2000/svg" version="1.1" width="512" height="512" viewBox="0 0 512 512" data-tags="mic, microphone, voice" fill="#000000">

<path d="M 240.00,352.00c 44.183,0.00, 80.00-35.817, 80.00-80.00L 320.00,80.00 c0.00-44.183-35.817-80.00-80.00-80.00s-80.00,35.817-80.00,80.00l0.00,192.00 C 160.00,316.183, 195.818,352.00, 240.00,352.00zM 352.00,224.00l0.00,48.00 c0.00,61.855-50.145,112.00-112.00,112.00c-61.856,0.00-112.00-50.145-112.00-112.00l0.00-48.00 L 96.00,224.00 l0.00,48.00 c0.00,74.119, 56.002,135.15, 128.00,143.11L 224.00,480.00 l-64.00,0.00 l0.00,32.00 l 64.00,0.00 l 32.00,0.00 l 64.00,0.00 l0.00-32.00 l-64.00,0.00 l0.00-64.89 c 71.997-7.96, 128.00-68.991, 128.00-143.11l0.00-48.00 L 352.00,224.00 z" ></path>
</svg>